<svg version="1.1" id="Layer_1" xmlns="http://www.w3.org/2000/svg" xmlns:xlink="http://www.w3.org/1999/xlink" x="0px" y="0px"
	 width="100%" viewBox="0 0 1256 553" enable-background="new 0 0 1256 553" xml:space="preserve">
<path fill="#000001" opacity="1.000000" stroke="none" 
	d="
M972.000000,554.000000 
	C648.000000,554.000000 324.500031,554.000000 1.000043,554.000000 
	C1.000029,369.666687 1.000029,185.333389 1.000015,1.000068 
	C419.666626,1.000046 838.333252,1.000046 1257.000000,1.000023 
	C1257.000000,185.333267 1257.000000,369.666534 1257.000000,553.999878 
	C1162.166626,554.000000 1067.333374,554.000000 972.000000,554.000000 
M373.921600,172.008774 
	C373.873566,184.651505 373.825500,197.294220 372.869934,209.962006 
	C314.975922,209.962006 257.081879,209.962006 199.216553,209.962006 
	C199.216553,221.685455 199.216553,232.619263 199.216553,244.093552 
	C257.574341,244.093552 315.675476,244.093552 373.921600,245.008774 
	C373.921600,260.892914 373.921600,276.777039 373.921600,293.094238 
	C395.643860,293.094238 416.710907,293.094238 437.923065,294.009338 
	C437.923065,312.920471 437.923065,331.831573 437.923065,350.733978 
	C562.999817,350.733978 687.334290,350.733978 812.198792,350.733978 
	C812.198792,331.310486 812.198792,312.193329 813.109436,293.048279 
	C833.986694,293.048279 854.863953,293.048279 876.200134,293.048279 
	C876.200134,276.269531 876.200134,260.172516 877.110596,244.047150 
	C935.018555,244.047150 992.926575,244.047150 1050.819580,244.047150 
	C1050.819580,232.331253 1050.819580,221.397171 1050.819580,209.940414 
	C992.442932,209.940414 934.333130,209.940414 876.100586,209.018143 
	C876.133789,196.370590 876.166931,183.723038 877.110596,171.047150 
	C935.018555,171.047150 992.926575,171.047150 1050.819580,171.047150 
	C1050.819580,159.331253 1050.819580,148.397171 1050.819580,136.940414 
	C992.442932,136.940414 934.333069,136.940414 876.100647,136.018143 
	C876.100647,120.129196 876.100647,104.240250 876.100647,87.939796 
	C854.369507,87.939796 833.295654,87.939796 812.099182,87.017616 
	C812.099182,68.104813 812.099182,49.192013 812.099182,30.271605 
	C687.028503,30.271605 562.692566,30.271605 437.778870,30.271605 
	C437.778870,49.699825 437.778870,68.818069 436.871552,87.961014 
	C416.005096,87.961014 395.138611,87.961014 373.777466,87.961014 
	C373.777466,104.749634 373.777466,120.843292 372.869934,136.962006 
	C314.975922,136.962006 257.081879,136.962006 199.216553,136.962006 
	C199.216553,148.685455 199.216553,159.619263 199.216553,171.093552 
	C257.574341,171.093552 315.675476,171.093552 373.921600,172.008774 
M520.376709,399.003998 
	C529.559937,419.021698 537.306824,439.704681 546.931274,459.518005 
	C547.421875,459.367554 547.912476,459.217072 548.403076,459.066620 
	C557.973755,436.366577 567.544434,413.666534 577.115112,390.966522 
	C577.937439,409.546997 577.944763,427.941681 577.933533,446.336365 
	C577.929504,452.935455 576.584656,454.566376 569.967773,454.938721 
	C566.654297,455.125214 566.505615,456.514740 567.436218,459.230652 
	C580.320740,459.230652 593.119080,459.188965 605.916687,459.260651 
	C609.021362,459.278015 609.642212,458.000824 608.679443,455.393341 
	C598.404785,454.150818 598.087158,453.780396 598.088074,443.308258 
	C598.089722,425.981232 598.087830,408.654175 598.087524,391.327148 
	C598.087402,384.092133 599.404053,382.545929 606.510559,380.993195 
	C607.516602,380.773438 608.368530,379.848053 609.291748,379.249298 
	C609.123718,378.813782 608.955627,378.378235 608.787537,377.942719 
	C598.490906,377.942719 588.193481,377.886017 577.898987,378.034576 
	C576.919189,378.048706 575.498291,379.137726 575.067444,380.084900 
	C573.171082,384.253876 571.590515,388.565277 569.845154,392.804382 
	C565.019714,404.524353 560.169006,416.233978 555.006287,428.727020 
	C554.083557,426.876923 553.534851,425.909027 553.103210,424.891510 
	C547.082092,410.697113 541.138916,396.468994 534.987122,382.331604 
	C534.244141,380.624146 532.436768,378.189575 531.051819,378.141632 
	C520.775879,377.785919 510.482086,377.948792 500.193878,377.948792 
	C500.033600,378.398895 499.873291,378.848999 499.713013,379.299072 
	C500.656067,379.881653 501.531952,380.776886 502.553009,380.996216 
	C509.353607,382.456665 510.913269,384.311432 510.919128,391.472046 
	C510.932770,408.132660 510.925323,424.793274 510.924744,441.453888 
	C510.924408,451.938019 510.122711,452.997559 499.731293,456.533081 
	C500.833221,457.812988 502.198639,459.092651 503.606506,459.141205 
	C511.258759,459.404907 518.921509,459.364227 526.580627,459.431549 
	C526.969238,459.434967 527.357544,459.468536 528.105652,459.506134 
	C527.931274,457.816040 527.790100,456.448212 527.658081,455.168518 
	C520.504150,454.681763 516.190063,451.528870 516.151428,446.428375 
	C516.011963,428.002991 516.096558,409.575928 516.096558,391.149475 
	C516.354004,391.067078 516.611450,390.984650 516.868958,390.902252 
	C517.932495,393.369415 518.996094,395.836578 520.376709,399.003998 
M671.007568,405.439453 
	C671.007568,408.187927 671.007568,410.936401 671.007568,413.591858 
	C661.600098,413.591858 653.020264,413.591858 644.089722,413.591858 
	C644.089722,406.117493 644.042908,398.980560 644.102234,391.844513 
	C644.168396,383.875092 645.671875,382.246948 653.452820,380.981140 
	C654.444458,380.819824 655.305359,379.854736 656.226868,379.262024 
	C656.057861,378.933136 655.888916,378.604279 655.719910,378.275391 
	C641.520081,378.275391 627.320190,378.275391 613.120361,378.275391 
	C612.982727,378.719513 612.845093,379.163605 612.707458,379.607727 
	C613.862488,380.091248 614.993469,380.646088 616.177063,381.044983 
	C619.723938,382.240326 623.919617,382.677155 623.921814,387.865204 
	C623.930664,408.356323 623.966248,428.847595 623.894409,449.338470 
	C623.882141,452.845001 621.747742,454.702271 618.265930,454.947052 
	C616.629395,455.062103 614.988220,455.110535 613.051636,455.203400 
	C613.123169,456.677216 613.182800,457.904663 613.247253,459.233337 
	C626.564331,459.233337 639.529358,459.205780 652.494080,459.253662 
	C655.571228,459.265015 656.912170,458.334717 655.413269,455.234711 
	C647.049011,454.646423 644.688965,453.590790 644.370483,448.124207 
	C643.833130,438.901031 644.223145,429.623810 644.223145,420.322693 
	C653.363953,420.322693 661.948608,420.322693 670.924011,420.322693 
	C670.924011,430.380737 671.208313,440.183777 670.663635,449.940521 
	C670.564819,451.709534 667.246216,453.596619 665.076050,454.838501 
	C663.810913,455.562469 661.874634,455.113464 659.935608,455.206940 
	C660.093506,456.761749 660.218872,457.996552 660.344727,459.235840 
	C673.500610,459.235840 686.309204,459.205261 699.117432,459.258148 
	C702.168518,459.270752 704.072632,458.708221 702.324463,455.134033 
	C701.489319,455.088318 700.823181,454.997498 700.161865,455.024658 
	C696.454224,455.176666 693.068787,454.625122 692.109741,450.307098 
	C691.541382,447.748566 691.155457,445.092133 691.141235,442.477264 
	C691.054626,426.484680 690.814270,410.484528 691.197754,394.500671 
	C691.451233,383.932587 691.889832,383.974487 701.747620,380.885376 
	C702.354492,380.695221 702.615417,379.401031 703.270142,378.189819 
	C688.332886,378.189819 674.237854,378.189819 660.142822,378.189819 
	C659.985657,378.609802 659.828491,379.029785 659.671326,379.449768 
	C660.783997,379.982025 661.851807,380.827118 663.016907,380.994385 
	C669.263000,381.890839 670.943604,383.665222 671.000305,389.959656 
	C671.043823,394.790497 671.008057,399.622070 671.007568,405.439453 
M768.948792,412.624023 
	C769.313782,412.282898 769.632874,411.866882 770.050293,411.611542 
	C781.624756,404.531555 777.616455,388.302856 770.678162,383.793945 
	C765.364563,380.340820 758.237976,378.562653 751.794006,378.192291 
	C737.682495,377.381348 723.492188,377.909088 709.334717,377.993622 
	C708.252380,378.000061 707.174927,378.822052 706.095154,379.264923 
	C707.178345,379.868744 708.201050,380.649902 709.355896,381.043762 
	C713.063538,382.308136 717.088562,382.793671 717.040344,388.358063 
	C716.865845,408.510986 717.069580,428.668365 716.712646,448.816681 
	C716.676208,450.872559 714.161621,453.353668 712.172363,454.743195 
	C710.815735,455.690796 708.371216,455.080841 706.390747,455.168304 
	C705.308594,458.821686 707.017090,459.308167 709.872192,459.282684 
	C721.531372,459.178589 733.224670,459.769012 744.840698,459.053223 
	C752.750427,458.565826 760.836548,457.177734 768.326233,454.655609 
	C776.418152,451.930664 780.757019,444.942963 780.847961,436.411804 
	C780.928833,428.827484 778.138000,422.320526 770.103394,419.438599 
	C767.443115,418.484344 764.911194,417.172180 761.729553,415.761627 
	C764.182068,414.722656 766.232239,413.854156 768.948792,412.624023 
M933.844360,459.218567 
	C942.769653,459.218567 951.695007,459.218567 961.578003,459.218567 
	C960.815979,457.656586 960.435364,455.394867 959.422424,455.062988 
	C955.541321,453.791290 955.111816,450.897614 955.099792,447.643036 
	C955.067200,438.811188 955.296509,429.972321 955.007080,421.149841 
	C954.846252,416.245605 957.479309,413.369659 961.056885,411.109222 
	C965.034973,408.595764 968.575623,409.926422 968.873779,414.661713 
	C969.613098,426.400543 969.713562,438.187927 969.704224,449.955566 
	C969.703003,451.525330 967.590088,453.102661 966.432007,454.659302 
	C965.478394,455.941193 964.490601,457.197571 962.924927,459.238068 
	C969.324341,459.238068 973.973999,459.238098 978.623596,459.238098 
	C983.263245,459.238098 987.902893,459.238068 994.389771,459.238068 
	C992.685730,457.039520 991.773865,455.994507 991.011230,454.850098 
	C989.657898,452.819427 987.359253,450.771515 987.271484,448.655457 
	C986.864075,438.840332 986.960327,428.997192 987.129700,419.168488 
	C987.202271,414.956360 992.986267,409.568787 996.795166,410.143982 
	C1001.826050,410.903778 1001.794556,415.257812 1001.871155,418.925232 
	C1002.069519,428.419556 1002.203918,437.933746 1001.750488,447.410645 
	C1001.629822,449.931946 999.332947,452.367249 997.966797,454.803650 
	C997.229858,456.117981 996.348022,457.351044 995.134705,459.238068 
	C1001.319214,459.238068 1005.968445,459.238098 1010.617676,459.238098 
	C1015.249634,459.238098 1019.881592,459.238068 1025.741577,459.238068 
	C1024.720825,457.266052 1024.359131,455.341980 1023.464905,455.050201 
	C1019.397400,453.723053 1019.102295,450.585175 1019.094788,447.201355 
	C1019.072815,437.369598 1018.946045,427.535217 1019.120728,417.706512 
	C1019.410522,401.406250 1005.076721,398.130951 995.913940,402.578461 
	C992.246460,404.358612 989.099304,407.210785 986.726074,408.868866 
	C983.529541,406.428711 980.903809,403.500031 977.625793,402.114594 
	C970.834106,399.244141 964.455566,401.098267 958.760010,405.584595 
	C957.767151,406.366699 956.608765,406.938782 955.376404,407.700928 
	C955.095215,405.887939 954.881348,404.509155 954.702271,403.354492 
	C946.908142,403.354492 939.529297,403.354492 931.416260,403.354492 
	C932.265381,404.678070 932.571655,405.806854 933.201477,406.032501 
	C937.575562,407.599731 937.767212,411.536591 937.854675,414.983582 
	C938.125183,425.641724 938.070251,436.313171 937.882935,446.974884 
	C937.826172,450.205414 937.373779,453.553711 933.461975,455.076080 
	C932.847839,455.315063 933.085571,457.742950 933.844360,459.218567 
M43.956459,440.414856 
	C43.956402,441.746613 43.963577,443.078430 43.955101,444.410126 
	C43.906906,451.981720 42.530235,453.487579 35.101742,455.140808 
	C34.112892,455.360901 33.511238,457.320740 32.214977,459.236389 
	C46.029476,459.236389 58.180408,459.188293 70.330429,459.271759 
	C73.208908,459.291504 74.864113,458.716583 73.570358,455.138550 
	C68.666870,455.187225 63.452930,454.972870 63.196934,448.392609 
	C62.875580,440.132538 63.119556,431.850433 63.119556,423.415466 
	C67.948814,422.929474 72.345581,422.510223 76.736931,422.040314 
	C86.588371,420.986206 95.093704,417.976807 99.189293,407.705841 
	C101.745308,401.295868 99.887665,391.595917 95.257072,386.491272 
	C89.439003,380.077606 81.713188,378.445709 73.891335,378.093994 
	C61.266094,377.526276 48.596622,377.913818 35.946358,377.987579 
	C34.985851,377.993195 34.029499,378.710724 33.071217,379.097321 
	C33.929962,379.760834 34.691551,380.733795 35.662884,381.038727 
	C43.191143,383.402466 43.951611,384.378082 43.954700,392.494049 
	C43.960651,408.141815 43.956444,423.789612 43.956459,440.414856 
M1193.083984,383.709137 
	C1196.627808,391.087860 1194.257935,398.752563 1195.006836,406.430969 
	C1192.119751,404.674133 1190.047607,402.918640 1187.653687,402.042053 
	C1177.158203,398.198853 1165.040405,404.766510 1160.965820,416.074738 
	C1158.050781,424.164612 1157.109009,432.547668 1159.142212,440.728638 
	C1161.257446,449.239166 1164.952881,457.343170 1174.924561,459.553009 
	C1182.441528,461.218811 1189.334473,460.230530 1194.878906,452.379730 
	C1194.878906,455.639221 1194.878906,457.542114 1194.878906,460.366058 
	C1203.114258,458.836151 1210.869995,457.395355 1219.411743,455.808533 
	C1218.675293,454.737091 1218.088501,452.857147 1217.084717,452.598969 
	C1212.461426,451.409821 1212.038696,448.160797 1212.053101,444.236877 
	C1212.127441,424.070740 1212.088501,403.904205 1212.088989,383.737793 
	C1212.089111,381.956940 1212.088989,380.176086 1212.088989,378.168365 
	C1203.436279,378.168365 1195.343994,378.168365 1187.192749,378.168365 
	C1187.192749,379.644196 1187.192749,380.903046 1187.192749,381.925232 
	C1189.205688,382.367615 1190.900269,382.740051 1193.083984,383.709137 
M333.009460,402.982635 
	C326.517609,402.978638 320.024811,402.920593 313.535156,403.037659 
	C312.706360,403.052612 311.894043,403.980438 311.074097,404.485352 
	C311.670990,405.029358 312.180298,405.846313 312.879730,406.070801 
	C316.120270,407.110809 316.989624,409.437103 316.971924,412.559387 
	C316.902130,424.874695 316.877472,437.190765 316.946869,449.505920 
	C316.962830,452.342468 316.230560,454.169800 313.205170,455.002380 
	C312.122253,455.300385 311.416260,456.968048 309.725464,458.975586 
	C320.896820,458.975586 330.290558,458.975586 339.684265,458.975586 
	C339.984772,458.613007 340.285309,458.250427 340.585815,457.887848 
	C339.659088,456.849426 338.680206,455.852142 337.819489,454.761627 
	C336.850739,453.534180 335.227936,452.239380 335.199585,450.945160 
	C334.962646,440.131104 334.931549,429.309357 335.059082,418.492493 
	C335.097809,415.206635 340.526825,409.672028 343.309937,410.206238 
	C347.894775,411.086334 348.007721,414.880981 347.965973,418.704498 
	C347.862396,428.191528 347.939789,437.680450 347.926788,447.168610 
	C347.922272,450.489960 348.281860,453.906006 343.897186,455.227783 
	C343.209198,455.435181 343.109741,457.594940 342.691772,459.008850 
	C352.817627,459.008850 362.229828,459.008850 372.352844,459.008850 
	C371.805450,457.358246 371.555695,455.352570 371.055542,455.288025 
	C365.147217,454.525909 366.088623,450.141022 365.986664,446.244965 
	C365.704742,435.476257 365.446320,424.706512 365.075775,413.940704 
	C364.886078,408.430237 360.713806,403.492310 355.341095,401.705505 
	C347.334442,399.042816 341.265350,402.941528 335.461456,407.208130 
	C334.950836,405.859802 334.419647,404.457184 333.009460,402.982635 
M826.908020,450.761200 
	C824.988953,455.862671 820.352905,454.821075 815.960938,455.207336 
	C816.118958,456.756653 816.253052,458.070709 816.339478,458.917786 
	C840.523315,458.917786 864.104492,458.917786 887.738037,458.917786 
	C888.747375,449.058289 889.710144,439.653107 890.672974,430.247925 
	C890.210022,429.951111 889.747009,429.654266 889.284058,429.357452 
	C888.150391,430.823914 886.564697,432.126495 885.963074,433.785858 
	C883.641296,440.189880 880.985901,446.259796 875.032349,450.238068 
	C869.519592,453.921814 863.316467,452.851166 857.292297,452.912598 
	C848.676514,453.000519 847.327698,452.081573 847.184021,443.504822 
	C846.893982,426.186584 846.911011,408.857178 847.177246,391.538177 
	C847.306274,383.146118 848.229431,382.617889 856.877136,380.974640 
	C857.772156,380.804565 858.522095,379.870941 859.339294,379.291595 
	C859.169067,378.944061 858.998779,378.596527 858.828491,378.248993 
	C844.601501,378.248993 830.374451,378.248993 816.147461,378.248993 
	C815.987854,378.645813 815.828308,379.042633 815.668701,379.439453 
	C816.778259,379.975220 817.842224,380.825806 819.005005,380.994263 
	C825.296570,381.905670 826.977356,383.596191 826.985413,389.914886 
	C827.010803,409.902039 826.959656,429.889313 826.908020,450.761200 
M276.597595,460.028320 
	C281.999573,460.445526 287.562714,460.259216 291.953949,457.031738 
	C308.938599,444.548157 306.787201,417.345947 294.703125,406.980499 
	C285.857635,399.393097 269.484467,398.871277 260.867645,407.236023 
	C251.960800,415.882263 250.493835,426.524536 252.201797,437.360992 
	C254.323715,450.824066 261.431946,459.467194 276.597595,460.028320 
M1128.427490,445.088623 
	C1123.323486,441.042206 1123.099976,435.195343 1121.953491,428.900208 
	C1132.380859,428.900208 1142.123169,428.900208 1151.813965,428.900208 
	C1152.244507,421.325134 1148.765137,410.443787 1145.015259,406.979248 
	C1134.041016,396.839874 1119.415283,400.099609 1111.224243,410.566467 
	C1103.994751,419.804443 1103.909424,430.664856 1105.982056,441.650757 
	C1107.724365,450.886841 1116.445679,459.616913 1124.247437,460.148499 
	C1136.892700,461.010101 1148.581909,454.442780 1151.743530,444.589905 
	C1151.971436,443.879822 1151.605957,442.427582 1151.085205,442.160065 
	C1150.329346,441.771881 1148.903198,441.789673 1148.263550,442.283173 
	C1147.273315,443.047150 1146.785278,444.425720 1145.945312,445.427124 
	C1140.666016,451.720154 1133.728149,451.797943 1128.427490,445.088623 
M415.697723,448.446075 
	C412.415619,448.596222 408.761993,449.747864 405.925934,448.695709 
	C399.261078,446.223083 395.232422,436.945953 396.752441,428.887512 
	C406.036743,428.887512 415.437439,428.887512 425.484039,428.887512 
	C424.939392,424.537811 424.894379,420.701874 423.934692,417.110382 
	C419.577423,400.803772 399.891998,395.663391 387.890869,407.497620 
	C376.788239,418.445831 377.391113,431.494385 380.855804,445.122620 
	C383.048492,453.747498 391.587158,461.008575 404.474030,460.147186 
	C413.535278,459.541534 421.523376,454.183319 424.550446,444.989838 
	C424.928528,443.841614 424.188049,442.325104 423.906372,440.618866 
	C420.789124,443.431213 418.401703,445.585175 415.697723,448.446075 
M117.507233,406.916687 
	C113.151001,410.488922 109.959267,414.904114 109.040016,420.495758 
	C108.324272,424.849487 108.128334,429.309814 107.981270,433.732086 
	C107.470604,449.088715 116.750458,461.956940 135.284637,460.123260 
	C142.606583,459.398865 152.120834,451.900360 153.790558,444.544830 
	C154.034973,443.468170 153.152786,442.135742 152.651245,440.448547 
	C147.649124,445.495880 143.997803,452.207916 136.418365,449.541260 
	C127.151108,446.280670 125.574799,437.837097 124.614372,428.835052 
	C134.529785,428.835052 144.132828,428.835052 153.639053,428.835052 
	C155.721298,418.091522 149.804565,408.070160 143.084152,404.023865 
	C134.238586,398.698029 125.874283,400.348480 117.507233,406.916687 
M194.926392,450.443970 
	C194.976028,449.121094 195.025681,447.798187 195.075317,446.475311 
	C193.873886,446.990143 192.618408,447.410400 191.490875,448.054596 
	C190.793259,448.453156 190.339005,449.253723 189.691452,449.767975 
	C186.790070,452.072052 183.291824,450.931824 183.216949,447.259033 
	C182.967422,435.019806 183.122482,422.772308 183.122482,410.169617 
	C187.643234,410.169617 191.578751,410.169617 195.688751,410.169617 
	C195.688751,407.600800 195.688751,405.413025 195.688751,402.786621 
	C191.374329,402.786621 187.444229,402.786621 182.978088,402.786621 
	C182.978088,395.976471 182.978088,389.594574 182.978088,382.014221 
	C180.771255,383.488525 178.955963,384.038391 178.350052,385.212433 
	C174.058151,393.528656 166.996689,399.222473 160.171036,405.194092 
	C159.018402,406.202515 158.465942,407.896942 157.219147,409.966736 
	C161.030060,410.208435 163.422256,410.360138 165.679123,410.503265 
	C165.822739,411.425812 165.918381,411.754456 165.918640,412.083160 
	C165.927765,423.407043 165.933792,434.730927 165.927017,446.054810 
	C165.923035,452.704498 169.647079,457.603058 175.741592,458.927002 
	C183.838806,460.685974 191.956039,457.298828 194.926392,450.443970 
M202.859894,459.220398 
	C211.180679,459.225189 219.502747,459.148438 227.821609,459.276947 
	C230.925842,459.324890 231.587341,458.080688 230.617386,455.110352 
	C225.143082,455.652130 223.908936,452.417328 224.055450,447.749695 
	C224.206772,442.928772 223.785568,438.077637 224.142303,433.278961 
	C224.479858,428.738312 225.081161,424.127838 226.332062,419.767731 
	C227.811646,414.610474 231.173248,413.847443 235.678711,416.416382 
	C239.000397,418.310303 242.733597,419.596008 246.179382,416.404541 
	C249.287338,413.525970 250.122528,407.633728 247.578247,404.108978 
	C245.191589,400.802582 241.599365,399.923676 237.870422,401.529541 
	C235.233826,402.664978 232.756516,404.294678 230.441742,406.017609 
	C228.170761,407.708038 226.195007,409.795013 223.835052,411.939362 
	C223.835052,408.933746 223.835052,406.161713 223.835052,403.183502 
	C216.122528,403.183502 208.696259,403.183502 201.019821,403.183502 
	C201.176636,404.199127 201.132950,405.577362 201.440536,405.660828 
	C206.655609,407.075775 206.913406,411.237671 206.937225,415.449615 
	C206.993713,425.434265 207.179657,435.427185 206.836899,445.400360 
	C206.711029,449.062408 207.205765,453.622803 202.018036,455.229645 
	C201.626266,455.350922 201.954880,457.797974 202.859894,459.220398 
M439.364014,397.923553 
	C437.065796,402.385651 429.299591,403.014954 430.184296,410.024811 
	C432.746948,410.245880 434.686981,410.413208 436.922577,410.606049 
	C436.922577,422.834778 436.791107,434.785980 437.031738,446.729675 
	C437.080841,449.167633 437.931976,452.057465 439.431732,453.918304 
	C446.439941,462.613953 460.635620,460.883179 465.571198,450.871826 
	C466.178406,449.640137 465.949860,447.996399 466.108612,446.543579 
	C464.818878,447.153473 463.531647,447.768738 462.238800,448.372009 
	C460.443634,449.209747 458.471863,450.903381 456.902740,450.590485 
	C455.702850,450.351227 454.246918,447.584290 454.214111,445.915985 
	C453.983215,434.166107 454.091553,422.409576 454.091553,410.120056 
	C458.601685,410.120056 462.660950,410.120056 466.768921,410.120056 
	C466.768921,407.508026 466.768921,405.440033 466.768921,402.761841 
	C462.425201,402.761841 458.379822,402.761841 454.005096,402.761841 
	C454.005096,395.870422 454.005096,389.588318 454.005096,383.306213 
	C453.566620,383.006989 453.128143,382.707764 452.689667,382.408539 
	C448.443787,387.444946 444.197876,392.481354 439.364014,397.923553 
M1069.340210,400.930237 
	C1067.531128,404.082489 1061.614746,404.613678 1063.344116,410.491211 
	C1065.527344,410.491211 1067.584839,410.491211 1069.927734,410.491211 
	C1069.927734,422.504456 1069.888306,434.140564 1069.969849,445.775787 
	C1069.982178,447.537842 1070.236450,449.433563 1070.924683,451.032562 
	C1074.314209,458.908539 1086.380249,462.467957 1093.177490,457.206085 
	C1096.538940,454.603851 1100.951416,451.834198 1099.561035,445.262573 
	C1098.059204,446.257568 1097.093750,446.962189 1096.067505,447.563019 
	C1094.117920,448.704254 1092.133545,449.786072 1090.163696,450.892548 
	C1089.146362,448.962402 1087.296387,447.052551 1087.248657,445.098694 
	C1086.969238,433.664551 1087.111572,422.220123 1087.111572,410.188538 
	C1091.571533,410.188538 1095.640381,410.188538 1099.789307,410.188538 
	C1099.789307,407.525970 1099.789307,405.462769 1099.789307,402.798340 
	C1095.456055,402.798340 1091.402710,402.798340 1087.025391,402.798340 
	C1087.025391,395.908417 1087.025391,389.619690 1087.025391,383.330933 
	C1086.688843,383.113892 1086.352295,382.896851 1086.015625,382.679810 
	C1080.659790,388.628296 1075.303833,394.576782 1069.340210,400.930237 
M1045.449707,402.969391 
	C1040.363892,402.969391 1035.277954,402.969391 1028.589844,402.969391 
	C1030.301880,404.733246 1030.830078,405.755737 1031.593018,405.980255 
	C1034.815918,406.928619 1035.968506,409.045715 1035.953491,412.255890 
	C1035.894287,424.891449 1036.046265,437.529999 1035.773804,450.160004 
	C1035.739624,451.748535 1033.875854,454.346863 1032.465332,454.651581 
	C1028.832764,455.436249 1029.862671,457.098450 1030.499634,458.971985 
	C1040.455933,458.971985 1050.060303,458.971985 1060.918701,458.971985 
	C1059.738892,457.132111 1059.154907,455.198792 1058.307251,455.075409 
	C1054.502197,454.521576 1054.012695,452.066345 1054.016724,448.997345 
	C1054.031128,437.856689 1054.002686,426.715942 1053.992798,415.575256 
	C1053.989136,411.483093 1053.992188,407.390930 1053.992188,402.969391 
	C1051.031616,402.969391 1048.729492,402.969391 1045.449707,402.969391 
M902.178955,409.700958 
	C902.393127,410.140839 902.792542,410.579834 902.794678,411.020721 
	C902.857605,424.013306 903.027283,437.009399 902.729004,449.994568 
	C902.690857,451.653473 900.419678,454.280518 898.764954,454.666504 
	C895.512329,455.425232 895.692322,456.724060 896.691162,459.308929 
	C906.757812,459.308929 916.670532,459.308929 926.810425,459.308929 
	C926.810425,458.187469 926.810425,456.910736 926.810425,455.243622 
	C919.710632,455.368927 920.309692,449.764069 920.199951,445.402222 
	C919.889893,433.081635 920.091125,420.748169 920.090820,408.419800 
	C920.090759,406.677368 920.090698,404.934937 920.090698,403.146729 
	C911.645325,403.146729 904.026733,403.146729 895.198547,403.146729 
	C896.353943,404.538055 896.879089,405.430908 897.637695,406.026489 
	C898.983093,407.082886 900.470154,407.958832 902.178955,409.700958 
M1035.040405,385.555084 
	C1035.302612,386.326233 1035.626221,387.082489 1035.817261,387.870850 
	C1037.204102,393.592896 1039.249634,395.111420 1045.560059,395.053833 
	C1051.490845,394.999695 1053.010376,393.657959 1054.479736,387.177551 
	C1055.389160,383.166382 1053.073730,378.852631 1048.989380,376.948944 
	C1042.855103,374.089783 1038.082031,376.772156 1035.040405,385.555084 
M903.912598,379.563110 
	C903.558228,380.459961 903.259766,381.383942 902.839966,382.249084 
	C900.812866,386.426880 901.608704,390.476746 905.304810,392.698639 
	C908.241028,394.463684 912.398804,395.663757 915.638000,395.068237 
	C919.289612,394.396851 921.144470,390.771301 921.168274,386.514984 
	C921.192932,382.107147 919.769226,378.993103 915.735779,376.934601 
	C911.327515,374.684784 907.861877,376.761536 903.912598,379.563110 
z"/>
<path fill="#0000FE" opacity="1.000000" stroke="none" 
	d="
M437.778870,87.936310 
	C437.778870,68.818069 437.778870,49.699825 437.778870,30.271605 
	C562.692566,30.271605 687.028503,30.271605 812.099182,30.271605 
	C812.099182,49.192013 812.099182,68.104813 812.063843,87.943832 
	C812.083801,99.935303 812.139038,111.000557 812.136841,122.524353 
	C812.079285,127.567619 812.079285,132.152344 812.079285,136.947021 
	C822.490723,136.947021 832.136780,136.947021 841.877563,137.410553 
	C841.907227,148.947281 841.842163,160.020508 841.323853,171.073135 
	C820.004700,171.052551 799.138733,171.052551 777.777222,171.052551 
	C777.777222,154.272003 777.777222,138.182861 777.875000,121.626511 
	C777.908508,110.086121 777.844238,99.012947 777.852051,87.480896 
	C777.924133,79.440170 777.924133,71.858307 777.924133,64.322205 
	C675.614929,64.322205 574.082275,64.322205 472.220795,64.322205 
	C472.220795,72.379265 472.220795,80.161247 472.124695,88.406754 
	C472.085602,99.938751 472.142578,111.007225 472.143585,122.536407 
	C472.087585,138.885818 472.087585,154.774490 472.087585,171.075577 
	C450.354248,171.075577 429.276917,171.075577 408.112061,170.609344 
	C408.088806,159.078781 408.153046,148.014420 408.671570,136.960510 
	C418.567200,136.970947 428.008575,136.970947 437.782349,136.970947 
	C437.782349,131.641129 437.782349,126.862244 437.878082,121.618057 
	C437.908844,110.080612 437.843872,99.008461 437.778870,87.936310 
z"/>
<path fill="#0000FE" opacity="1.000000" stroke="none" 
	d="
M812.198792,293.076202 
	C812.198792,312.193329 812.198792,331.310486 812.198792,350.733978 
	C687.334290,350.733978 562.999817,350.733978 437.923065,350.733978 
	C437.923065,331.831573 437.923065,312.920471 437.948120,293.084290 
	C437.909882,281.088379 437.846558,270.017548 437.855469,258.489105 
	C437.927704,253.445770 437.927704,248.860031 437.927704,244.065506 
	C427.499817,244.065506 417.847290,244.065506 408.109375,243.599579 
	C408.090210,232.069229 408.156464,221.004776 408.676605,209.951813 
	C430.004150,209.963287 450.877808,209.963287 472.222687,209.963287 
	C472.222687,226.746689 472.222687,242.843475 472.125793,259.405121 
	C472.085236,270.937531 472.141510,282.005066 472.140991,293.532410 
	C472.084198,301.575623 472.084198,309.158997 472.084198,316.686981 
	C574.381287,316.686981 675.906616,316.686981 777.779114,316.686981 
	C777.779114,308.643188 777.779114,300.866943 777.876099,292.625153 
	C777.908142,281.085358 777.843140,270.011078 777.849609,258.477112 
	C777.921143,242.129593 777.921143,226.241776 777.921143,209.936890 
	C799.643921,209.936890 820.710999,209.936890 841.874939,210.400696 
	C841.908508,221.937347 841.845276,233.010193 841.328125,244.063553 
	C831.427734,244.044067 821.981201,244.044067 812.216980,244.044067 
	C812.216980,249.376831 812.216980,254.163300 812.122437,259.413147 
	C812.084900,270.943115 812.141846,282.009644 812.198792,293.076202 
z"/>
<path fill="#FE0000" opacity="1.000000" stroke="none" 
	d="
M812.654114,293.062256 
	C812.141846,282.009644 812.084900,270.943115 812.576538,259.423706 
	C822.566650,258.970825 832.008179,258.970825 841.781982,258.970825 
	C841.781982,253.640945 841.781982,248.862000 841.781982,244.083038 
	C841.845276,233.010193 841.908508,221.937347 841.946716,209.942062 
	C841.873474,196.377655 841.825317,183.735687 841.777100,171.093719 
	C841.842163,160.020508 841.907227,148.947281 841.949951,136.953049 
	C841.927551,131.446228 841.927551,126.860420 841.927551,122.065819 
	C831.499634,122.065819 821.846985,122.065819 812.194336,122.065819 
	C812.139038,111.000557 812.083801,99.935303 812.125244,88.404922 
	C833.295654,87.939796 854.369507,87.939796 876.100647,87.939796 
	C876.100647,104.240250 876.100647,120.129196 876.064941,136.944290 
	C876.086182,148.938782 876.143127,160.007141 876.200073,171.075485 
	C876.166931,183.723038 876.133789,196.370590 876.064941,209.944290 
	C876.086243,221.938782 876.143188,233.007141 876.200134,244.075485 
	C876.200134,260.172516 876.200134,276.269531 876.200134,293.048279 
	C854.863953,293.048279 833.986694,293.048279 812.654114,293.062256 
z"/>
<path fill="#FE0000" opacity="1.000000" stroke="none" 
	d="
M408.222717,209.940338 
	C408.156464,221.004776 408.090210,232.069229 408.051697,244.057999 
	C408.079376,249.567123 408.079376,254.151917 408.079376,258.946716 
	C418.490906,258.946716 428.137085,258.946716 437.783264,258.946716 
	C437.846558,270.017548 437.909882,281.088379 437.875580,292.626709 
	C416.710907,293.094238 395.643860,293.094238 373.921600,293.094238 
	C373.921600,276.777039 373.921600,260.892914 373.947021,244.083755 
	C373.907471,232.084808 373.842468,221.010880 373.777466,209.936951 
	C373.825500,197.294220 373.873566,184.651505 373.947021,171.083755 
	C373.907440,159.084808 373.842438,148.010880 373.777466,136.936951 
	C373.777466,120.843292 373.777466,104.749634 373.777466,87.961014 
	C395.138611,87.961014 416.005096,87.961014 437.325226,87.948662 
	C437.843872,99.008461 437.908844,110.080612 437.424438,121.598473 
	C427.428314,122.044182 417.981628,122.044182 408.217316,122.044182 
	C408.217316,127.376991 408.217316,132.163528 408.217316,136.950073 
	C408.153046,148.014420 408.088806,159.078781 408.055786,171.068939 
	C408.132263,184.643280 408.177490,197.291809 408.222717,209.940338 
z"/>
<path fill="#0000FE" opacity="1.000000" stroke="none" 
	d="
M373.323669,136.949478 
	C373.842438,148.010880 373.907440,159.084808 373.874512,170.626144 
	C315.675476,171.093552 257.574341,171.093552 199.216553,171.093552 
	C199.216553,159.619263 199.216553,148.685455 199.216553,136.962006 
	C257.081879,136.962006 314.975922,136.962006 373.323669,136.949478 
z"/>
<path fill="#0000FE" opacity="1.000000" stroke="none" 
	d="
M876.655334,171.061310 
	C876.143127,160.007141 876.086182,148.938782 876.126221,137.405426 
	C934.333069,136.940414 992.442932,136.940414 1050.819580,136.940414 
	C1050.819580,148.397171 1050.819580,159.331253 1050.819580,171.047150 
	C992.926575,171.047150 935.018555,171.047150 876.655334,171.061310 
z"/>
<path fill="#0000FE" opacity="1.000000" stroke="none" 
	d="
M373.323700,209.949478 
	C373.842468,221.010880 373.907471,232.084808 373.874542,243.626144 
	C315.675476,244.093552 257.574341,244.093552 199.216553,244.093552 
	C199.216553,232.619263 199.216553,221.685455 199.216553,209.962006 
	C257.081879,209.962006 314.975922,209.962006 373.323700,209.949478 
z"/>
<path fill="#0000FE" opacity="1.000000" stroke="none" 
	d="
M876.655396,244.061310 
	C876.143188,233.007141 876.086243,221.938782 876.126282,210.405426 
	C934.333130,209.940414 992.442932,209.940414 1050.819580,209.940414 
	C1050.819580,221.397171 1050.819580,232.331253 1050.819580,244.047150 
	C992.926575,244.047150 935.018555,244.047150 876.655396,244.061310 
z"/>
<path fill="#0000FD" opacity="1.000000" stroke="none" 
	d="
M520.218201,398.653870 
	C518.996094,395.836578 517.932495,393.369415 516.868958,390.902252 
	C516.611450,390.984650 516.354004,391.067078 516.096558,391.149475 
	C516.096558,409.575928 516.011963,428.002991 516.151428,446.428375 
	C516.190063,451.528870 520.504150,454.681763 527.658081,455.168518 
	C527.790100,456.448212 527.931274,457.816040 528.105652,459.506134 
	C527.357544,459.468536 526.969238,459.434967 526.580627,459.431549 
	C518.921509,459.364227 511.258759,459.404907 503.606506,459.141205 
	C502.198639,459.092651 500.833221,457.812988 499.731293,456.533081 
	C510.122711,452.997559 510.924408,451.938019 510.924744,441.453888 
	C510.925323,424.793274 510.932770,408.132660 510.919128,391.472046 
	C510.913269,384.311432 509.353607,382.456665 502.553009,380.996216 
	C501.531952,380.776886 500.656067,379.881653 499.713013,379.299072 
	C499.873291,378.848999 500.033600,378.398895 500.193878,377.948792 
	C510.482086,377.948792 520.775879,377.785919 531.051819,378.141632 
	C532.436768,378.189575 534.244141,380.624146 534.987122,382.331604 
	C541.138916,396.468994 547.082092,410.697113 553.103210,424.891510 
	C553.534851,425.909027 554.083557,426.876923 555.006287,428.727020 
	C560.169006,416.233978 565.019714,404.524353 569.845154,392.804382 
	C571.590515,388.565277 573.171082,384.253876 575.067444,380.084900 
	C575.498291,379.137726 576.919189,378.048706 577.898987,378.034576 
	C588.193481,377.886017 598.490906,377.942719 608.787537,377.942719 
	C608.955627,378.378235 609.123718,378.813782 609.291748,379.249298 
	C608.368530,379.848053 607.516602,380.773438 606.510559,380.993195 
	C599.404053,382.545929 598.087402,384.092133 598.087524,391.327148 
	C598.087830,408.654175 598.089722,425.981232 598.088074,443.308258 
	C598.087158,453.780396 598.404785,454.150818 608.679443,455.393341 
	C609.642212,458.000824 609.021362,459.278015 605.916687,459.260651 
	C593.119080,459.188965 580.320740,459.230652 567.436218,459.230652 
	C566.505615,456.514740 566.654297,455.125214 569.967773,454.938721 
	C576.584656,454.566376 577.929504,452.935455 577.933533,446.336365 
	C577.944763,427.941681 577.937439,409.546997 577.115112,390.966522 
	C567.544434,413.666534 557.973755,436.366577 548.403076,459.066620 
	C547.912476,459.217072 547.421875,459.367554 546.931274,459.518005 
	C537.306824,439.704681 529.559937,419.021698 520.218201,398.653870 
z"/>
<path fill="#0000FD" opacity="1.000000" stroke="none" 
	d="
M671.007568,404.946381 
	C671.008057,399.622070 671.043823,394.790497 671.000305,389.959656 
	C670.943604,383.665222 669.263000,381.890839 663.016907,380.994385 
	C661.851807,380.827118 660.783997,379.982025 659.671326,379.449768 
	C659.828491,379.029785 659.985657,378.609802 660.142822,378.189819 
	C674.237854,378.189819 688.332886,378.189819 703.270142,378.189819 
	C702.615417,379.401031 702.354492,380.695221 701.747620,380.885376 
	C691.889832,383.974487 691.451233,383.932587 691.197754,394.500671 
	C690.814270,410.484528 691.054626,426.484680 691.141235,442.477264 
	C691.155457,445.092133 691.541382,447.748566 692.109741,450.307098 
	C693.068787,454.625122 696.454224,455.176666 700.161865,455.024658 
	C700.823181,454.997498 701.489319,455.088318 702.324463,455.134033 
	C704.072632,458.708221 702.168518,459.270752 699.117432,459.258148 
	C686.309204,459.205261 673.500610,459.235840 660.344727,459.235840 
	C660.218872,457.996552 660.093506,456.761749 659.935608,455.206940 
	C661.874634,455.113464 663.810913,455.562469 665.076050,454.838501 
	C667.246216,453.596619 670.564819,451.709534 670.663635,449.940521 
	C671.208313,440.183777 670.924011,430.380737 670.924011,420.322693 
	C661.948608,420.322693 653.363953,420.322693 644.223145,420.322693 
	C644.223145,429.623810 643.833130,438.901031 644.370483,448.124207 
	C644.688965,453.590790 647.049011,454.646423 655.413269,455.234711 
	C656.912170,458.334717 655.571228,459.265015 652.494080,459.253662 
	C639.529358,459.205780 626.564331,459.233337 613.247253,459.233337 
	C613.182800,457.904663 613.123169,456.677216 613.051636,455.203400 
	C614.988220,455.110535 616.629395,455.062103 618.265930,454.947052 
	C621.747742,454.702271 623.882141,452.845001 623.894409,449.338470 
	C623.966248,428.847595 623.930664,408.356323 623.921814,387.865204 
	C623.919617,382.677155 619.723938,382.240326 616.177063,381.044983 
	C614.993469,380.646088 613.862488,380.091248 612.707458,379.607727 
	C612.845093,379.163605 612.982727,378.719513 613.120361,378.275391 
	C627.320190,378.275391 641.520081,378.275391 655.719910,378.275391 
	C655.888916,378.604279 656.057861,378.933136 656.226868,379.262024 
	C655.305359,379.854736 654.444458,380.819824 653.452820,380.981140 
	C645.671875,382.246948 644.168396,383.875092 644.102234,391.844513 
	C644.042908,398.980560 644.089722,406.117493 644.089722,413.591858 
	C653.020264,413.591858 661.600098,413.591858 671.007568,413.591858 
	C671.007568,410.936401 671.007568,408.187927 671.007568,404.946381 
z"/>
<path fill="#0000FD" opacity="1.000000" stroke="none" 
	d="
M768.615601,412.804810 
	C766.232239,413.854156 764.182068,414.722656 761.729553,415.761627 
	C764.911194,417.172180 767.443115,418.484344 770.103394,419.438599 
	C778.138000,422.320526 780.928833,428.827484 780.847961,436.411804 
	C780.757019,444.942963 776.418152,451.930664 768.326233,454.655609 
	C760.836548,457.177734 752.750427,458.565826 744.840698,459.053223 
	C733.224670,459.769012 721.531372,459.178589 709.872192,459.282684 
	C707.017090,459.308167 705.308594,458.821686 706.390747,455.168304 
	C708.371216,455.080841 710.815735,455.690796 712.172363,454.743195 
	C714.161621,453.353668 716.676208,450.872559 716.712646,448.816681 
	C717.069580,428.668365 716.865845,408.510986 717.040344,388.358063 
	C717.088562,382.793671 713.063538,382.308136 709.355896,381.043762 
	C708.201050,380.649902 707.178345,379.868744 706.095154,379.264954 
	C707.174927,378.822052 708.252380,378.000061 709.334717,377.993622 
	C723.492188,377.909088 737.682495,377.381348 751.794006,378.192291 
	C758.237976,378.562653 765.364563,380.340820 770.678162,383.793945 
	C777.616455,388.302856 781.624756,404.531555 770.050293,411.611542 
	C769.632874,411.866882 769.313782,412.282898 768.615601,412.804810 
M737.050598,442.374908 
	C737.050659,443.536438 737.038940,444.698151 737.052917,445.859497 
	C737.123413,451.719940 739.226685,453.593903 744.991211,452.942047 
	C751.888306,452.162140 758.081238,445.961151 758.906494,439.008636 
	C759.865967,430.925323 755.793945,423.490295 748.733154,421.252075 
	C745.255066,420.149567 741.521362,419.853546 737.050598,419.036774 
	C737.050598,426.653564 737.050598,434.029236 737.050598,442.374908 
M747.362488,412.171936 
	C756.667664,408.809631 757.114624,399.765381 755.434326,393.281769 
	C753.894043,387.338287 746.726318,382.035095 737.312256,384.888763 
	C737.312256,394.466919 737.312256,404.049866 737.312256,414.113525 
	C740.667419,413.594299 743.694458,413.125854 747.362488,412.171936 
z"/>
<path fill="#0000FD" opacity="1.000000" stroke="none" 
	d="
M933.386841,459.188660 
	C933.085571,457.742950 932.847839,455.315063 933.461975,455.076080 
	C937.373779,453.553711 937.826172,450.205414 937.882935,446.974884 
	C938.070251,436.313171 938.125183,425.641724 937.854675,414.983582 
	C937.767212,411.536591 937.575562,407.599731 933.201477,406.032501 
	C932.571655,405.806854 932.265381,404.678070 931.416260,403.354492 
	C939.529297,403.354492 946.908142,403.354492 954.702271,403.354492 
	C954.881348,404.509155 955.095215,405.887939 955.376404,407.700928 
	C956.608765,406.938782 957.767151,406.366699 958.760010,405.584595 
	C964.455566,401.098267 970.834106,399.244141 977.625793,402.114594 
	C980.903809,403.500031 983.529541,406.428711 986.726074,408.868866 
	C989.099304,407.210785 992.246460,404.358612 995.913940,402.578461 
	C1005.076721,398.130951 1019.410522,401.406250 1019.120728,417.706512 
	C1018.946045,427.535217 1019.072815,437.369598 1019.094788,447.201355 
	C1019.102295,450.585175 1019.397400,453.723053 1023.464905,455.050201 
	C1024.359131,455.341980 1024.720825,457.266052 1025.741577,459.238068 
	C1019.881592,459.238068 1015.249634,459.238098 1010.617676,459.238098 
	C1005.968445,459.238098 1001.319214,459.238068 995.134705,459.238068 
	C996.348022,457.351044 997.229858,456.117981 997.966797,454.803650 
	C999.332947,452.367249 1001.629822,449.931946 1001.750488,447.410645 
	C1002.203918,437.933746 1002.069519,428.419556 1001.871155,418.925232 
	C1001.794556,415.257812 1001.826050,410.903778 996.795166,410.143982 
	C992.986267,409.568787 987.202271,414.956360 987.129700,419.168488 
	C986.960327,428.997192 986.864075,438.840332 987.271484,448.655457 
	C987.359253,450.771515 989.657898,452.819427 991.011230,454.850098 
	C991.773865,455.994507 992.685730,457.039520 994.389771,459.238068 
	C987.902893,459.238068 983.263245,459.238098 978.623596,459.238098 
	C973.973999,459.238098 969.324341,459.238068 962.924927,459.238068 
	C964.490601,457.197571 965.478394,455.941193 966.432007,454.659302 
	C967.590088,453.102661 969.703003,451.525330 969.704224,449.955566 
	C969.713562,438.187927 969.613098,426.400543 968.873779,414.661713 
	C968.575623,409.926422 965.034973,408.595764 961.056885,411.109222 
	C957.479309,413.369659 954.846252,416.245605 955.007080,421.149841 
	C955.296509,429.972321 955.067200,438.811188 955.099792,447.643036 
	C955.111816,450.897614 955.541321,453.791290 959.422424,455.062988 
	C960.435364,455.394867 960.815979,457.656586 961.578003,459.218567 
	C951.695007,459.218567 942.769653,459.218567 933.386841,459.188660 
z"/>
<path fill="#0000FD" opacity="1.000000" stroke="none" 
	d="
M43.956455,439.926117 
	C43.956444,423.789612 43.960651,408.141815 43.954700,392.494049 
	C43.951611,384.378082 43.191143,383.402466 35.662884,381.038727 
	C34.691551,380.733795 33.929962,379.760834 33.071217,379.097321 
	C34.029499,378.710724 34.985851,377.993195 35.946358,377.987579 
	C48.596622,377.913818 61.266094,377.526276 73.891335,378.093994 
	C81.713188,378.445709 89.439003,380.077606 95.257072,386.491272 
	C99.887665,391.595917 101.745308,401.295868 99.189293,407.705841 
	C95.093704,417.976807 86.588371,420.986206 76.736931,422.040314 
	C72.345581,422.510223 67.948814,422.929474 63.119556,423.415466 
	C63.119556,431.850433 62.875580,440.132538 63.196934,448.392609 
	C63.452930,454.972870 68.666870,455.187225 73.570358,455.138550 
	C74.864113,458.716583 73.208908,459.291504 70.330429,459.271759 
	C58.180408,459.188293 46.029476,459.236389 32.214977,459.236389 
	C33.511238,457.320740 34.112892,455.360901 35.101742,455.140808 
	C42.530235,453.487579 43.906906,451.981720 43.955101,444.410126 
	C43.963577,443.078430 43.956402,441.746613 43.956455,439.926117 
M63.072449,401.497131 
	C63.072449,406.577759 63.072449,411.658386 63.072449,416.642731 
	C70.748802,417.247925 75.252357,415.087341 78.005959,409.916199 
	C81.244766,403.833893 80.457130,392.769012 76.062958,387.875031 
	C72.577858,383.993591 68.060837,383.295288 63.072472,384.804688 
	C63.072472,390.190247 63.072472,395.345032 63.072449,401.497131 
z"/>
<path fill="#0000FD" opacity="1.000000" stroke="none" 
	d="
M1192.839478,383.410828 
	C1190.900269,382.740051 1189.205688,382.367615 1187.192749,381.925232 
	C1187.192749,380.903046 1187.192749,379.644196 1187.192749,378.168365 
	C1195.343994,378.168365 1203.436279,378.168365 1212.088989,378.168365 
	C1212.088989,380.176086 1212.089111,381.956940 1212.088989,383.737793 
	C1212.088501,403.904205 1212.127441,424.070740 1212.053101,444.236877 
	C1212.038696,448.160797 1212.461426,451.409821 1217.084717,452.598969 
	C1218.088501,452.857147 1218.675293,454.737091 1219.411743,455.808533 
	C1210.869995,457.395355 1203.114258,458.836151 1194.878906,460.366058 
	C1194.878906,457.542114 1194.878906,455.639221 1194.878906,452.379730 
	C1189.334473,460.230530 1182.441528,461.218811 1174.924561,459.553009 
	C1164.952881,457.343170 1161.257446,449.239166 1159.142212,440.728638 
	C1157.109009,432.547668 1158.050781,424.164612 1160.965820,416.074738 
	C1165.040405,404.766510 1177.158203,398.198853 1187.653687,402.042053 
	C1190.047607,402.918640 1192.119751,404.674133 1195.006836,406.430969 
	C1194.257935,398.752563 1196.627808,391.087860 1192.839478,383.410828 
M1186.777466,408.392761 
	C1182.988037,407.133667 1180.640625,408.885101 1179.434204,412.261505 
	C1175.421509,423.491821 1175.888550,434.881500 1179.253174,446.084778 
	C1179.948853,448.401306 1183.127686,451.662323 1184.970581,451.542480 
	C1187.640381,451.368835 1190.622925,448.928040 1192.550049,446.668213 
	C1194.074219,444.880859 1194.723145,441.938965 1194.861206,439.459717 
	C1195.183472,433.669739 1194.651245,427.828064 1195.048584,422.047455 
	C1195.484253,415.708801 1192.518799,411.751129 1186.777466,408.392761 
z"/>
<path fill="#0000FD" opacity="1.000000" stroke="none" 
	d="
M333.448975,403.018616 
	C334.419647,404.457184 334.950836,405.859802 335.461456,407.208130 
	C341.265350,402.941528 347.334442,399.042816 355.341095,401.705505 
	C360.713806,403.492310 364.886078,408.430237 365.075775,413.940704 
	C365.446320,424.706512 365.704742,435.476257 365.986664,446.244965 
	C366.088623,450.141022 365.147217,454.525909 371.055542,455.288025 
	C371.555695,455.352570 371.805450,457.358246 372.352844,459.008850 
	C362.229828,459.008850 352.817627,459.008850 342.691772,459.008850 
	C343.109741,457.594940 343.209198,455.435181 343.897186,455.227783 
	C348.281860,453.906006 347.922272,450.489960 347.926788,447.168610 
	C347.939789,437.680450 347.862396,428.191528 347.965973,418.704498 
	C348.007721,414.880981 347.894775,411.086334 343.309937,410.206238 
	C340.526825,409.672028 335.097809,415.206635 335.059082,418.492493 
	C334.931549,429.309357 334.962646,440.131104 335.199585,450.945160 
	C335.227936,452.239380 336.850739,453.534180 337.819489,454.761627 
	C338.680206,455.852142 339.659088,456.849426 340.585815,457.887848 
	C340.285309,458.250427 339.984772,458.613007 339.684265,458.975586 
	C330.290558,458.975586 320.896820,458.975586 309.725464,458.975586 
	C311.416260,456.968048 312.122253,455.300385 313.205170,455.002380 
	C316.230560,454.169800 316.962830,452.342468 316.946869,449.505920 
	C316.877472,437.190765 316.902130,424.874695 316.971924,412.559387 
	C316.989624,409.437103 316.120270,407.110809 312.879730,406.070801 
	C312.180298,405.846313 311.670990,405.029358 311.074097,404.485352 
	C311.894043,403.980438 312.706360,403.052612 313.535156,403.037659 
	C320.024811,402.920593 326.517609,402.978638 333.448975,403.018616 
z"/>
<path fill="#0000FD" opacity="1.000000" stroke="none" 
	d="
M826.923035,450.318848 
	C826.959656,429.889313 827.010803,409.902039 826.985413,389.914886 
	C826.977356,383.596191 825.296570,381.905670 819.005005,380.994263 
	C817.842224,380.825806 816.778259,379.975220 815.668701,379.439453 
	C815.828308,379.042633 815.987854,378.645813 816.147461,378.248993 
	C830.374451,378.248993 844.601501,378.248993 858.828491,378.248993 
	C858.998779,378.596527 859.169067,378.944061 859.339294,379.291595 
	C858.522095,379.870941 857.772156,380.804565 856.877136,380.974640 
	C848.229431,382.617889 847.306274,383.146118 847.177246,391.538177 
	C846.911011,408.857178 846.893982,426.186584 847.184021,443.504822 
	C847.327698,452.081573 848.676514,453.000519 857.292297,452.912598 
	C863.316467,452.851166 869.519592,453.921814 875.032349,450.238068 
	C880.985901,446.259796 883.641296,440.189880 885.963074,433.785858 
	C886.564697,432.126495 888.150391,430.823914 889.284058,429.357452 
	C889.747009,429.654266 890.210022,429.951111 890.672974,430.247925 
	C889.710144,439.653107 888.747375,449.058289 887.738037,458.917786 
	C864.104492,458.917786 840.523315,458.917786 816.339478,458.917786 
	C816.253052,458.070709 816.118958,456.756653 815.960938,455.207336 
	C820.352905,454.821075 824.988953,455.862671 826.923035,450.318848 
z"/>
<path fill="#0000FD" opacity="1.000000" stroke="none" 
	d="
M276.140320,460.029358 
	C261.431946,459.467194 254.323715,450.824066 252.201797,437.360992 
	C250.493835,426.524536 251.960800,415.882263 260.867645,407.236023 
	C269.484467,398.871277 285.857635,399.393097 294.703125,406.980499 
	C306.787201,417.345947 308.938599,444.548157 291.953949,457.031738 
	C287.562714,460.259216 281.999573,460.445526 276.140320,460.029358 
M270.049316,436.444305 
	C270.388336,440.203186 270.551697,443.988647 271.115234,447.713562 
	C271.691193,451.520477 273.372833,454.769531 277.834534,454.883545 
	C281.487244,454.976929 284.783752,451.293640 284.862457,446.733612 
	C285.046844,436.049255 285.048096,425.357544 284.868073,414.673126 
	C284.800568,410.666779 280.631927,405.864624 277.812439,406.267273 
	C273.417816,406.894867 271.456451,410.232025 271.118042,414.188446 
	C270.513336,421.257904 270.379822,428.367676 270.049316,436.444305 
z"/>
<path fill="#0000FD" opacity="1.000000" stroke="none" 
	d="
M1128.670898,445.372192 
	C1133.728149,451.797943 1140.666016,451.720154 1145.945312,445.427124 
	C1146.785278,444.425720 1147.273315,443.047150 1148.263550,442.283173 
	C1148.903198,441.789673 1150.329346,441.771881 1151.085205,442.160065 
	C1151.605957,442.427582 1151.971436,443.879822 1151.743530,444.589905 
	C1148.581909,454.442780 1136.892700,461.010101 1124.247437,460.148499 
	C1116.445679,459.616913 1107.724365,450.886841 1105.982056,441.650757 
	C1103.909424,430.664856 1103.994751,419.804443 1111.224243,410.566467 
	C1119.415283,400.099609 1134.041016,396.839874 1145.015259,406.979248 
	C1148.765137,410.443787 1152.244507,421.325134 1151.813965,428.900208 
	C1142.123169,428.900208 1132.380859,428.900208 1121.953491,428.900208 
	C1123.099976,435.195343 1123.323486,441.042206 1128.670898,445.372192 
M1122.037476,419.589264 
	C1122.822388,421.057861 1123.472534,423.684448 1124.415649,423.794189 
	C1128.461060,424.265015 1132.592651,423.995026 1136.663086,423.995026 
	C1136.385620,420.327911 1136.770508,417.017365 1135.749878,414.219543 
	C1134.666382,411.249298 1132.785767,407.362335 1130.285645,406.406342 
	C1126.750366,405.054565 1124.698975,408.860291 1123.583496,412.062927 
	C1122.840698,414.195251 1122.543945,416.482910 1122.037476,419.589264 
z"/>
<path fill="#0000FD" opacity="1.000000" stroke="none" 
	d="
M415.856018,448.092590 
	C418.401703,445.585175 420.789124,443.431213 423.906372,440.618866 
	C424.188049,442.325104 424.928528,443.841614 424.550446,444.989838 
	C421.523376,454.183319 413.535278,459.541534 404.474030,460.147186 
	C391.587158,461.008575 383.048492,453.747498 380.855804,445.122620 
	C377.391113,431.494385 376.788239,418.445831 387.890869,407.497620 
	C399.891998,395.663391 419.577423,400.803772 423.934692,417.110382 
	C424.894379,420.701874 424.939392,424.537811 425.484039,428.887512 
	C415.437439,428.887512 406.036743,428.887512 396.752441,428.887512 
	C395.232422,436.945953 399.261078,446.223083 405.925934,448.695709 
	C408.761993,449.747864 412.415619,448.596222 415.856018,448.092590 
M409.857056,416.046875 
	C408.587311,413.253906 407.652222,410.217499 405.884064,407.787140 
	C405.170959,406.807068 401.923248,406.302551 401.044678,407.036591 
	C395.861023,411.367462 394.832153,417.281860 395.261169,423.671692 
	C400.396362,423.671692 404.972076,423.671692 409.924316,423.671692 
	C409.924316,421.190002 409.924316,419.053070 409.857056,416.046875 
z"/>
<path fill="#0000FD" opacity="1.000000" stroke="none" 
	d="
M117.756958,406.648254 
	C125.874283,400.348480 134.238586,398.698029 143.084152,404.023865 
	C149.804565,408.070160 155.721298,418.091522 153.639053,428.835052 
	C144.132828,428.835052 134.529785,428.835052 124.614372,428.835052 
	C125.574799,437.837097 127.151108,446.280670 136.418365,449.541260 
	C143.997803,452.207916 147.649124,445.495880 152.651245,440.448547 
	C153.152786,442.135742 154.034973,443.468170 153.790558,444.544830 
	C152.120834,451.900360 142.606583,459.398865 135.284637,460.123260 
	C116.750458,461.956940 107.470604,449.088715 107.981270,433.732086 
	C108.128334,429.309814 108.324272,424.849487 109.040016,420.495758 
	C109.959267,414.904114 113.151001,410.488922 117.756958,406.648254 
M130.859329,406.153687 
	C125.422386,410.703644 123.537773,416.554108 124.289185,423.663940 
	C129.205307,423.663940 133.882538,423.663940 138.935928,423.663940 
	C138.935928,421.355316 139.284332,419.315796 138.867065,417.447235 
	C137.838135,412.839661 137.914185,407.373779 130.859329,406.153687 
z"/>
<path fill="#0000FC" opacity="1.000000" stroke="none" 
	d="
M194.726288,450.766296 
	C191.956039,457.298828 183.838806,460.685974 175.741592,458.927002 
	C169.647079,457.603058 165.923035,452.704498 165.927017,446.054810 
	C165.933792,434.730927 165.927765,423.407043 165.918640,412.083160 
	C165.918381,411.754456 165.822739,411.425812 165.679123,410.503265 
	C163.422256,410.360138 161.030060,410.208435 157.219147,409.966736 
	C158.465942,407.896942 159.018402,406.202515 160.171036,405.194092 
	C166.996689,399.222473 174.058151,393.528656 178.350052,385.212433 
	C178.955963,384.038391 180.771255,383.488525 182.978088,382.014221 
	C182.978088,389.594574 182.978088,395.976471 182.978088,402.786621 
	C187.444229,402.786621 191.374329,402.786621 195.688751,402.786621 
	C195.688751,405.413025 195.688751,407.600800 195.688751,410.169617 
	C191.578751,410.169617 187.643234,410.169617 183.122482,410.169617 
	C183.122482,422.772308 182.967422,435.019806 183.216949,447.259033 
	C183.291824,450.931824 186.790070,452.072052 189.691452,449.767975 
	C190.339005,449.253723 190.793259,448.453156 191.490875,448.054596 
	C192.618408,447.410400 193.873886,446.990143 195.075317,446.475311 
	C195.025681,447.798187 194.976028,449.121094 194.726288,450.766296 
z"/>
<path fill="#0000FD" opacity="1.000000" stroke="none" 
	d="
M202.404251,459.192139 
	C201.954880,457.797974 201.626266,455.350922 202.018036,455.229645 
	C207.205765,453.622803 206.711029,449.062408 206.836899,445.400360 
	C207.179657,435.427185 206.993713,425.434265 206.937225,415.449615 
	C206.913406,411.237671 206.655609,407.075775 201.440536,405.660828 
	C201.132950,405.577362 201.176636,404.199127 201.019821,403.183502 
	C208.696259,403.183502 216.122528,403.183502 223.835052,403.183502 
	C223.835052,406.161713 223.835052,408.933746 223.835052,411.939362 
	C226.195007,409.795013 228.170761,407.708038 230.441742,406.017609 
	C232.756516,404.294678 235.233826,402.664978 237.870422,401.529541 
	C241.599365,399.923676 245.191589,400.802582 247.578247,404.108978 
	C250.122528,407.633728 249.287338,413.525970 246.179382,416.404541 
	C242.733597,419.596008 239.000397,418.310303 235.678711,416.416382 
	C231.173248,413.847443 227.811646,414.610474 226.332062,419.767731 
	C225.081161,424.127838 224.479858,428.738312 224.142303,433.278961 
	C223.785568,438.077637 224.206772,442.928772 224.055450,447.749695 
	C223.908936,452.417328 225.143082,455.652130 230.617386,455.110352 
	C231.587341,458.080688 230.925842,459.324890 227.821609,459.276947 
	C219.502747,459.148438 211.180679,459.225189 202.404251,459.192139 
z"/>
<path fill="#0000FD" opacity="1.000000" stroke="none" 
	d="
M439.657990,397.720642 
	C444.197876,392.481354 448.443787,387.444946 452.689667,382.408539 
	C453.128143,382.707764 453.566620,383.006989 454.005096,383.306213 
	C454.005096,389.588318 454.005096,395.870422 454.005096,402.761841 
	C458.379822,402.761841 462.425201,402.761841 466.768921,402.761841 
	C466.768921,405.440033 466.768921,407.508026 466.768921,410.120056 
	C462.660950,410.120056 458.601685,410.120056 454.091553,410.120056 
	C454.091553,422.409576 453.983215,434.166107 454.214111,445.915985 
	C454.246918,447.584290 455.702850,450.351227 456.902740,450.590485 
	C458.471863,450.903381 460.443634,449.209747 462.238800,448.372009 
	C463.531647,447.768738 464.818878,447.153473 466.108643,446.543579 
	C465.949860,447.996399 466.178406,449.640137 465.571198,450.871826 
	C460.635620,460.883179 446.439941,462.613953 439.431732,453.918304 
	C437.931976,452.057465 437.080841,449.167633 437.031738,446.729675 
	C436.791107,434.785980 436.922577,422.834778 436.922577,410.606049 
	C434.686981,410.413208 432.746948,410.245880 430.184296,410.024811 
	C429.299591,403.014954 437.065796,402.385651 439.657990,397.720642 
z"/>
<path fill="#0000FD" opacity="1.000000" stroke="none" 
	d="
M1069.644043,400.727783 
	C1075.303833,394.576782 1080.659790,388.628296 1086.015625,382.679810 
	C1086.352295,382.896851 1086.688843,383.113892 1087.025391,383.330933 
	C1087.025391,389.619690 1087.025391,395.908417 1087.025391,402.798340 
	C1091.402710,402.798340 1095.456055,402.798340 1099.789307,402.798340 
	C1099.789307,405.462769 1099.789307,407.525970 1099.789307,410.188538 
	C1095.640381,410.188538 1091.571533,410.188538 1087.111572,410.188538 
	C1087.111572,422.220123 1086.969238,433.664551 1087.248657,445.098694 
	C1087.296387,447.052551 1089.146362,448.962402 1090.163696,450.892548 
	C1092.133545,449.786072 1094.117920,448.704254 1096.067505,447.563019 
	C1097.093750,446.962189 1098.059204,446.257568 1099.561035,445.262573 
	C1100.951416,451.834198 1096.538940,454.603851 1093.177490,457.206085 
	C1086.380249,462.467957 1074.314209,458.908539 1070.924683,451.032562 
	C1070.236450,449.433563 1069.982178,447.537842 1069.969849,445.775787 
	C1069.888306,434.140564 1069.927734,422.504456 1069.927734,410.491211 
	C1067.584839,410.491211 1065.527344,410.491211 1063.344116,410.491211 
	C1061.614746,404.613678 1067.531128,404.082489 1069.644043,400.727783 
z"/>
<path fill="#0000FE" opacity="1.000000" stroke="none" 
	d="
M1045.938477,402.969391 
	C1048.729492,402.969391 1051.031616,402.969391 1053.992188,402.969391 
	C1053.992188,407.390930 1053.989136,411.483093 1053.992798,415.575256 
	C1054.002686,426.715942 1054.031128,437.856689 1054.016724,448.997345 
	C1054.012695,452.066345 1054.502197,454.521576 1058.307251,455.075409 
	C1059.154907,455.198792 1059.738892,457.132111 1060.918701,458.971985 
	C1050.060303,458.971985 1040.455933,458.971985 1030.499634,458.971985 
	C1029.862671,457.098450 1028.832764,455.436249 1032.465332,454.651581 
	C1033.875854,454.346863 1035.739624,451.748535 1035.773804,450.160004 
	C1036.046265,437.529999 1035.894287,424.891449 1035.953491,412.255890 
	C1035.968506,409.045715 1034.815918,406.928619 1031.593018,405.980255 
	C1030.830078,405.755737 1030.301880,404.733246 1028.589844,402.969391 
	C1035.277954,402.969391 1040.363892,402.969391 1045.938477,402.969391 
z"/>
<path fill="#0000FD" opacity="1.000000" stroke="none" 
	d="
M902.038452,409.305603 
	C900.470154,407.958832 898.983093,407.082886 897.637695,406.026489 
	C896.879089,405.430908 896.353943,404.538055 895.198547,403.146729 
	C904.026733,403.146729 911.645325,403.146729 920.090698,403.146729 
	C920.090698,404.934937 920.090759,406.677368 920.090820,408.419800 
	C920.091125,420.748169 919.889893,433.081635 920.199951,445.402222 
	C920.309692,449.764069 919.710632,455.368927 926.810425,455.243622 
	C926.810425,456.910736 926.810425,458.187469 926.810425,459.308929 
	C916.670532,459.308929 906.757812,459.308929 896.691162,459.308929 
	C895.692322,456.724060 895.512329,455.425232 898.764954,454.666504 
	C900.419678,454.280518 902.690857,451.653473 902.729004,449.994568 
	C903.027283,437.009399 902.857605,424.013306 902.794678,411.020721 
	C902.792542,410.579834 902.393127,410.140839 902.038452,409.305603 
z"/>
<path fill="#0000FC" opacity="1.000000" stroke="none" 
	d="
M1035.060791,385.160095 
	C1038.082031,376.772156 1042.855103,374.089783 1048.989380,376.948944 
	C1053.073730,378.852631 1055.389160,383.166382 1054.479736,387.177551 
	C1053.010376,393.657959 1051.490845,394.999695 1045.560059,395.053833 
	C1039.249634,395.111420 1037.204102,393.592896 1035.817261,387.870850 
	C1035.626221,387.082489 1035.302612,386.326233 1035.060791,385.160095 
z"/>
<path fill="#0000FC" opacity="1.000000" stroke="none" 
	d="
M904.108398,379.217682 
	C907.861877,376.761536 911.327515,374.684784 915.735779,376.934601 
	C919.769226,378.993103 921.192932,382.107147 921.168274,386.514984 
	C921.144470,390.771301 919.289612,394.396851 915.638000,395.068237 
	C912.398804,395.663757 908.241028,394.463684 905.304810,392.698639 
	C901.608704,390.476746 900.812866,386.426880 902.839966,382.249084 
	C903.259766,381.383942 903.558228,380.459961 904.108398,379.217682 
z"/>
<path fill="#000000" opacity="1.000000" stroke="none" 
	d="
M408.676605,209.951813 
	C408.177490,197.291809 408.132263,184.643280 408.143311,171.535156 
	C429.276917,171.075577 450.354248,171.075577 472.087585,171.075577 
	C472.087585,154.774490 472.087585,138.885818 472.598663,122.522156 
	C574.665588,122.062698 676.221375,122.078209 777.777222,122.093712 
	C777.777222,138.182861 777.777222,154.272003 777.777222,171.052551 
	C799.138733,171.052551 820.004700,171.052551 841.323853,171.073135 
	C841.825317,183.735687 841.873474,196.377655 841.849854,209.478256 
	C820.710999,209.936890 799.643921,209.936890 777.921143,209.936890 
	C777.921143,226.241776 777.921143,242.129593 777.396057,258.489716 
	C675.321533,258.954773 573.772095,258.947510 472.222687,258.940247 
	C472.222687,242.843475 472.222687,226.746689 472.222687,209.963287 
	C450.877808,209.963287 430.004150,209.963287 408.676605,209.951813 
z"/>
<path fill="#FE0000" opacity="1.000000" stroke="none" 
	d="
M777.875000,121.626511 
	C676.221375,122.078209 574.665588,122.062698 472.654663,122.061440 
	C472.142578,111.007225 472.085602,99.938751 472.578522,88.418083 
	C574.678955,87.957176 676.229431,87.948471 777.779968,87.939766 
	C777.844238,99.012947 777.908508,110.086121 777.875000,121.626511 
z"/>
<path fill="#010002" opacity="1.000000" stroke="none" 
	d="
M777.852051,87.480896 
	C676.229431,87.948471 574.678955,87.957176 472.674622,87.954559 
	C472.220795,80.161247 472.220795,72.379265 472.220795,64.322205 
	C574.082275,64.322205 675.614929,64.322205 777.924133,64.322205 
	C777.924133,71.858307 777.924133,79.440170 777.852051,87.480896 
z"/>
<path fill="#030004" opacity="1.000000" stroke="none" 
	d="
M812.136841,122.524353 
	C821.846985,122.065819 831.499634,122.065819 841.927551,122.065819 
	C841.927551,126.860420 841.927551,131.446228 841.855225,136.489532 
	C832.136780,136.947021 822.490723,136.947021 812.079285,136.947021 
	C812.079285,132.152344 812.079285,127.567619 812.136841,122.524353 
z"/>
<path fill="#040003" opacity="1.000000" stroke="none" 
	d="
M408.671570,136.960510 
	C408.217316,132.163528 408.217316,127.376991 408.217316,122.044182 
	C417.981628,122.044182 427.428314,122.044182 437.328674,122.063766 
	C437.782349,126.862244 437.782349,131.641129 437.782349,136.970947 
	C428.008575,136.970947 418.567200,136.970947 408.671570,136.960510 
z"/>
<path fill="#FE0000" opacity="1.000000" stroke="none" 
	d="
M472.125793,259.405121 
	C573.772095,258.947510 675.321533,258.954773 777.324585,258.949402 
	C777.843140,270.011078 777.908142,281.085358 777.422668,292.604828 
	C675.314087,293.057556 573.755920,293.065063 472.197815,293.072601 
	C472.141510,282.005066 472.085236,270.937531 472.125793,259.405121 
z"/>
<path fill="#010002" opacity="1.000000" stroke="none" 
	d="
M472.140991,293.532410 
	C573.755920,293.065063 675.314087,293.057556 777.325684,293.070343 
	C777.779114,300.866943 777.779114,308.643188 777.779114,316.686981 
	C675.906616,316.686981 574.381287,316.686981 472.084198,316.686981 
	C472.084198,309.158997 472.084198,301.575623 472.140991,293.532410 
z"/>
<path fill="#030004" opacity="1.000000" stroke="none" 
	d="
M841.328125,244.063553 
	C841.781982,248.862000 841.781982,253.640945 841.781982,258.970825 
	C832.008179,258.970825 822.566650,258.970825 812.671021,258.960297 
	C812.216980,254.163300 812.216980,249.376831 812.216980,244.044067 
	C821.981201,244.044067 831.427734,244.044067 841.328125,244.063553 
z"/>
<path fill="#040003" opacity="1.000000" stroke="none" 
	d="
M437.855469,258.489105 
	C428.137085,258.946716 418.490906,258.946716 408.079376,258.946716 
	C408.079376,254.151917 408.079376,249.567123 408.137054,244.523926 
	C417.847290,244.065506 427.499817,244.065506 437.927704,244.065506 
	C437.927704,248.860031 437.927704,253.445770 437.855469,258.489105 
z"/>
<path fill="#000005" opacity="1.000000" stroke="none" 
	d="
M737.050598,441.889893 
	C737.050598,434.029236 737.050598,426.653564 737.050598,419.036774 
	C741.521362,419.853546 745.255066,420.149567 748.733154,421.252075 
	C755.793945,423.490295 759.865967,430.925323 758.906494,439.008636 
	C758.081238,445.961151 751.888306,452.162140 744.991211,452.942047 
	C739.226685,453.593903 737.123413,451.719940 737.052917,445.859497 
	C737.038940,444.698151 737.050659,443.536438 737.050598,441.889893 
z"/>
<path fill="#000006" opacity="1.000000" stroke="none" 
	d="
M747.041992,412.414673 
	C743.694458,413.125854 740.667419,413.594299 737.312256,414.113525 
	C737.312256,404.049866 737.312256,394.466919 737.312256,384.888763 
	C746.726318,382.035095 753.894043,387.338287 755.434326,393.281769 
	C757.114624,399.765381 756.667664,408.809631 747.041992,412.414673 
z"/>
<path fill="#000007" opacity="1.000000" stroke="none" 
	d="
M63.072460,400.998474 
	C63.072472,395.345032 63.072472,390.190247 63.072472,384.804688 
	C68.060837,383.295288 72.577858,383.993591 76.062958,387.875031 
	C80.457130,392.769012 81.244766,403.833893 78.005959,409.916199 
	C75.252357,415.087341 70.748802,417.247925 63.072449,416.642731 
	C63.072449,411.658386 63.072449,406.577759 63.072460,400.998474 
z"/>
<path fill="#000004" opacity="1.000000" stroke="none" 
	d="
M1187.076172,408.628479 
	C1192.518799,411.751129 1195.484253,415.708801 1195.048584,422.047455 
	C1194.651245,427.828064 1195.183472,433.669739 1194.861206,439.459717 
	C1194.723145,441.938965 1194.074219,444.880859 1192.550049,446.668213 
	C1190.622925,448.928040 1187.640381,451.368835 1184.970581,451.542480 
	C1183.127686,451.662323 1179.948853,448.401306 1179.253174,446.084778 
	C1175.888550,434.881500 1175.421509,423.491821 1179.434204,412.261505 
	C1180.640625,408.885101 1182.988037,407.133667 1187.076172,408.628479 
z"/>
<path fill="#000006" opacity="1.000000" stroke="none" 
	d="
M270.049316,435.952454 
	C270.379822,428.367676 270.513336,421.257904 271.118042,414.188446 
	C271.456451,410.232025 273.417816,406.894867 277.812439,406.267273 
	C280.631927,405.864624 284.800568,410.666779 284.868073,414.673126 
	C285.048096,425.357544 285.046844,436.049255 284.862457,446.733612 
	C284.783752,451.293640 281.487244,454.976929 277.834534,454.883545 
	C273.372833,454.769531 271.691193,451.520477 271.115234,447.713562 
	C270.551697,443.988647 270.388336,440.203186 270.049316,435.952454 
z"/>
<path fill="#000006" opacity="1.000000" stroke="none" 
	d="
M1122.042480,419.145142 
	C1122.543945,416.482910 1122.840698,414.195251 1123.583496,412.062927 
	C1124.698975,408.860291 1126.750366,405.054565 1130.285645,406.406342 
	C1132.785767,407.362335 1134.666382,411.249298 1135.749878,414.219543 
	C1136.770508,417.017365 1136.385620,420.327911 1136.663086,423.995026 
	C1132.592651,423.995026 1128.461060,424.265015 1124.415649,423.794189 
	C1123.472534,423.684448 1122.822388,421.057861 1122.042480,419.145142 
z"/>
<path fill="#000007" opacity="1.000000" stroke="none" 
	d="
M409.890686,416.481506 
	C409.924316,419.053070 409.924316,421.190002 409.924316,423.671692 
	C404.972076,423.671692 400.396362,423.671692 395.261169,423.671692 
	C394.832153,417.281860 395.861023,411.367462 401.044678,407.036591 
	C401.923248,406.302551 405.170959,406.807068 405.884064,407.787140 
	C407.652222,410.217499 408.587311,413.253906 409.890686,416.481506 
z"/>
<path fill="#000007" opacity="1.000000" stroke="none" 
	d="
M131.241257,406.108093 
	C137.914185,407.373779 137.838135,412.839661 138.867065,417.447235 
	C139.284332,419.315796 138.935928,421.355316 138.935928,423.663940 
	C133.882538,423.663940 129.205307,423.663940 124.289185,423.663940 
	C123.537773,416.554108 125.422386,410.703644 131.241257,406.108093 
z"/>
</svg>